<?xml version="1.0" encoding="iso-8859-1"?>
<!-- Generator: Adobe Illustrator 19.0.0, SVG Export Plug-In . SVG Version: 6.00 Build 0)  -->
<svg version="1.1" id="Capa_1" xmlns="http://www.w3.org/2000/svg" xmlns:xlink="http://www.w3.org/1999/xlink" x="0px" y="0px"
	 viewBox="0 0 480 480" style="enable-background:new 0 0 480 480;" xml:space="preserve">
<path style="fill:#57A4FF;" d="M454.901,226.552c-3.365-53.181-43.323-96.835-96-104.88
	C358.014,182.835,308.199,231.963,247.029,232h-65.872c-8.071-0.002-14.879,6.008-15.88,14.016L143.029,424l-4.896,29.368
	c-1.454,8.716,4.434,16.96,13.15,18.414c0.87,0.145,1.751,0.218,2.634,0.218h78.984c8.071,0.002,14.879-6.008,15.88-14.016
	L263.029,344h80c61.856,0.003,112.002-50.14,112.005-111.995C455.034,230.186,454.99,228.368,454.901,226.552L454.901,226.552z"/>
<path style="fill:#006DF0;" d="M173.157,232h65.872c61.185-0.015,111.024-49.149,111.912-110.328
	c-6.314-1.08-12.706-1.64-19.112-1.672H189.285c-8.113,0.02-14.927,6.108-15.856,14.168l-7.664,66.344l7.664-66.344
	c0.929-8.06,7.743-14.148,15.856-14.168h142.544c6.398,0.034,12.782,0.593,19.088,1.672c0-0.568,0.088-1.112,0.088-1.672
	c0-61.847-50.129-111.987-111.976-112H93.285c-8.113,0.02-14.927,6.108-15.856,14.168l-44.312,384
	c-1.012,8.778,5.284,16.715,14.063,17.727c0.598,0.069,1.199,0.104,1.801,0.105h86.048l22.248-177.984
	C158.278,238.008,165.087,231.998,173.157,232L173.157,232z"/>
<path style="fill:#231F20;" d="M358.773,114.96C356.051,50.772,303.275,0.105,239.029,0H93.293
	C81.095-0.011,70.828,9.13,69.429,21.248l-44.304,384c-1.52,13.167,7.922,25.074,21.09,26.594c0.918,0.106,1.842,0.159,2.766,0.158
	h76.608l-3.36,20.056c-2.178,13.075,6.655,25.44,19.73,27.618c1.308,0.218,2.632,0.327,3.958,0.326h78.984
	c12.105,0.001,22.315-9.013,23.816-21.024L262.093,352h72.936c66.274,0.003,120.003-53.72,120.006-119.994
	c0-1.947-0.047-3.893-0.142-5.838C451.803,171.581,412.338,125.921,358.773,114.96L358.773,114.96z M43.029,413.328
	c-1.53-1.7-2.253-3.977-1.984-6.248l44.32-384c0.466-4.028,3.873-7.07,7.928-7.08h145.736c54.479,0.087,99.67,42.176,103.624,96.512
	c-3.568-0.304-7.2-0.512-10.8-0.512H189.285c-12.189,0.001-22.442,9.139-23.84,21.248l-7.656,66.352
	c-0.506,4.39,2.642,8.358,7.032,8.864s8.358-2.642,8.864-7.032l7.656-66.352c0.467-4.034,3.883-7.079,7.944-7.08h142.544
	c3.621,0,7.203,0.173,10.744,0.52c-4.468,53.894-49.466,95.386-103.544,95.48h-65.872c-12.105-0.001-22.315,9.013-23.816,21.024
	L127.965,416H48.981C46.705,416.008,44.536,415.034,43.029,413.328L43.029,413.328z M410.317,303.728
	C390.754,324.42,363.505,336.1,335.029,336h-80c-4.034,0.001-7.436,3.005-7.936,7.008l-14.248,113.984
	c-0.501,4.006-3.907,7.011-7.944,7.008h-78.984c-4.418-0.002-7.998-3.585-7.996-8.004c0-0.438,0.036-0.876,0.108-1.308l4.888-29.368
	c0-0.056,0-0.112,0-0.16s0-0.112,0.048-0.168l22.248-177.984c0.501-4.006,3.907-7.011,7.944-7.008h65.872
	c61.847-0.081,113.526-47.107,119.424-108.672c45.045,10.51,77.793,49.422,80.456,95.6c1.483,28.462-8.872,56.27-28.608,76.832
	L410.317,303.728z"/>
<g>
</g>
<g>
</g>
<g>
</g>
<g>
</g>
<g>
</g>
<g>
</g>
<g>
</g>
<g>
</g>
<g>
</g>
<g>
</g>
<g>
</g>
<g>
</g>
<g>
</g>
<g>
</g>
<g>
</g>
</svg>
